
        <svg xmlns="http://www.w3.org/2000/svg" xmlns:xlink="http://www.w3.org/1999/xlink" version="1.1" width="2761.5062761506274" 
        height="3251.0460251046024" viewBox="0 0 2761.5062761506274 3251.0460251046024">
			
			<g transform="scale(12.552301255230125) translate(10, 10)">
				<defs id="SvgjsDefs1569"></defs><g id="SvgjsG1570" featureKey="rootContainer" transform="matrix(1,0,0,1,0,19)" fill="#ffcd3c"><rect y="0" height="1" width="1" opacity="0"></rect><rect y="215" width="200" height="5"></rect></g><g id="SvgjsG1571" featureKey="symbolFeature-0" transform="matrix(1.5,0,0,1.5,52.25,6)" fill="#ffcd3c"><g xmlns="http://www.w3.org/2000/svg"><path d="M30.7,56c-9-3.6-17.9-5.1-26.8-4.6L0.5,17.2c9.2-0.5,19.2,1.1,30.2,5.2L30.7,56z"></path><path d="M30.7,17.6v1.6C23,16.4,15.4,14.7,8,14.2L7.7,8C14.9,8.4,23.3,12.1,30.7,17.6z"></path><path d="M33.3,56c9-3.6,17.9-5.1,26.8-4.6l3.4-34.3c-9.2-0.5-19.2,1.1-30.2,5.2L33.3,56z"></path><path d="M33.3,17.6v1.6c7.8-2.8,15.4-4.5,22.7-4.9L56.3,8C49.1,8.4,40.7,12.1,33.3,17.6z"></path></g></g><g id="SvgjsG1572" featureKey="nameFeature-0" transform="matrix(1.2965329475282614,0,0,1.2965329475282614,-2.5074947403031804,94.42644797828719)" fill="#ffcd3c"><path d="M12.852 40.37109 c-5.7617 0 -9.9805 -2.7539 -10.918 -7.4414 l3.9648 -0.9375 c0.625 3.2227 3.418 5.0781 7.0898 5.0781 c2.9492 0 5.7813 -1.2109 5.7227 -4.5313 c-0.039063 -3.2813 -3.5938 -4.1797 -7.3633 -5.2148 c-4.2773 -1.1719 -8.5547 -2.5195 -8.5547 -7.5977 c0 -5.1367 4.2383 -7.7148 9.2578 -7.7148 c4.8633 0 9.2383 2.0508 10.273 6.7969 l-3.7695 0.95703 c-0.68359 -3.0664 -3.2422 -4.4336 -6.3281 -4.4336 c-2.7734 0 -5.5273 1.2109 -5.5273 4.3555 c0 2.8516 3.0859 3.6914 6.582 4.6289 c4.3945 1.1914 9.4336 2.5586 9.4336 8.1055 c0 5.5859 -4.6875 7.9492 -9.8633 7.9492 z M64.5067109375 40 l-3.8086 0 l-1.8164 -22.461 l-8.5352 22.461 l-2.3633 0 l-8.4766 -22.383 l-1.8555 22.383 l-3.8281 0 l2.1289 -27.617 l5.2539 0 l7.9492 20.879 l7.9883 -20.879 l5.2539 0 z M95.497734375 40 l-2.3047 -6.4453 l-12.344 0 l-2.3047 6.4453 l-4.043 0 l10.176 -27.617 l4.6875 0 l10.176 27.617 l-4.043 0 z M82.060534375 30.1562 l9.9219 0 l-4.9609 -13.926 z M125.4936015625 40 l-7.1484 -12.422 l-3.8672 0 l0 12.422 l-3.8867 0 l0 -27.617 l9.2969 0 c5.7813 0 8.418 3.5352 8.418 7.8711 c0 3.8477 -2.2656 6.5234 -6.0547 7.168 l7.793 12.578 l-4.5508 0 z M114.4775015625 15.742 l0 8.8672 l4.8828 0 c3.5938 0 5.2148 -1.7969 5.2148 -4.4141 c0 -2.5781 -1.6211 -4.4531 -5.2148 -4.4531 l-4.8828 0 z M156.19115625 12.383 l0 3.4961 l-6.9922 0 l0 24.121 l-3.8477 0 l0 -24.121 l-7.0117 0 l0 -3.4961 l17.852 0 z"></path></g><g id="SvgjsG1573" featureKey="nameFeature-1" transform="matrix(1.647564888611317,0,0,1.647564888611317,-6.918947316752055,137.20996107283534)" fill="#ffcd3c"><path d="M14.844 12.383 c5.0586 0 8.3203 3.8281 8.3203 8.5547 c0 4.7852 -3.2617 8.4766 -8.3203 8.4766 l-6.7578 0 l0 10.586 l-3.8867 0 l0 -27.617 l10.645 0 z M14.258 26.055 c3.2422 0 5.0586 -2.0898 5.0586 -5.1758 c0 -2.9688 -1.8164 -5.1563 -5.0586 -5.1563 l-6.1719 0 l0 10.332 l6.1719 0 z M46.7531796875 40.37109 c-7.832 0 -13.809 -5.3906 -13.809 -14.199 c0 -8.7891 5.9766 -14.16 13.809 -14.16 c7.793 0 13.789 5.3711 13.789 14.16 c0 8.8086 -5.9961 14.199 -13.789 14.199 z M46.7531796875 36.7187 c5.5273 0 9.9023 -3.8281 9.9023 -10.547 c0 -6.6602 -4.375 -10.488 -9.9023 -10.488 c-5.5469 0 -9.9414 3.8281 -9.9414 10.488 c0 6.7188 4.3945 10.547 9.9414 10.547 z M72.802715625 40 l0 -27.617 l9.1016 0 c8.4961 0 12.813 5.7031 12.813 13.789 c0 8.1445 -4.3164 13.828 -12.813 13.828 l-9.1016 0 z M76.689415625 36.4844 l5.0586 0 c6.0352 0 8.9063 -4.0039 8.9063 -10.313 c0 -6.2695 -2.8711 -10.293 -8.9063 -10.293 l-5.0586 0 l0 20.605 z M115.7279765625 40.37109 c-5.7617 0 -9.9805 -2.7539 -10.918 -7.4414 l3.9648 -0.9375 c0.625 3.2227 3.418 5.0781 7.0898 5.0781 c2.9492 0 5.7813 -1.2109 5.7227 -4.5313 c-0.039063 -3.2813 -3.5938 -4.1797 -7.3633 -5.2148 c-4.2773 -1.1719 -8.5547 -2.5195 -8.5547 -7.5977 c0 -5.1367 4.2383 -7.7148 9.2578 -7.7148 c4.8633 0 9.2383 2.0508 10.273 6.7969 l-3.7695 0.95703 c-0.68359 -3.0664 -3.2422 -4.4336 -6.3281 -4.4336 c-2.7734 0 -5.5273 1.2109 -5.5273 4.3555 c0 2.8516 3.0859 3.6914 6.582 4.6289 c4.3945 1.1914 9.4336 2.5586 9.4336 8.1055 c0 5.5859 -4.6875 7.9492 -9.8633 7.9492 z"></path></g>
			</g>
		</svg>
	